<svg id="Layer_1" data-name="Layer 1" xmlns="http://www.w3.org/2000/svg" viewBox="0 0 61.71 42.69"><defs><style>.cls-1{fill:#fff;}</style></defs><title>Wisdom Logo-W</title><path class="cls-1" d="M29.5,1.25c9.67.2,7.2-1.59,12.21,7.55,2.67,4.87,5.21,9.81,7.9,14.65a5.26,5.26,0,0,1-.06,5.62C47.72,32.34,46,35.66,44.17,39c-1.7,3.12-2.6,3.15-4.25,0Q32.06,24.13,24.27,9.26c-.87-1.64-1.77-3.3-2.57-5-1.13-2.4-.85-2.93,1.56-3C25.34,1.21,27.42,1.25,29.5,1.25Z"/><path class="cls-1" d="M9.31,1.29c9.3.2,6.72-1.58,11.82,7.85C23.76,14,26.26,19,28.91,23.85a4.17,4.17,0,0,1,.14,4.36C27,32,25,35.91,22.88,39.71c-1.18,2.17-1.94,2.17-3.05,0Q10.5,22.15,1.18,4.46C-.07,2.07.36,1.37,2.88,1.31,4.87,1.26,6.87,1.29,9.31,1.29Z"/><path class="cls-1" d="M53.32,1a8.17,8.17,0,0,1,7.89,7.73,8,8,0,0,1-7.6,7.94,8.23,8.23,0,0,1-8-7.69A8.21,8.21,0,0,1,53.32,1Z"/></svg>